<?xml version="1.0" standalone="no"?><!DOCTYPE svg PUBLIC "-//W3C//DTD SVG 1.1//EN" "http://www.w3.org/Graphics/SVG/1.1/DTD/svg11.dtd"><svg t="1542331882905" class="icon" style="" viewBox="0 0 1024 1024" version="1.1" xmlns="http://www.w3.org/2000/svg" p-id="1915" xmlns:xlink="http://www.w3.org/1999/xlink" width="200" height="200"><defs><style type="text/css"></style></defs><path d="M947.2 947.2c-12.8 12.8-32 12.8-51.2 0l-198.4-211.2c-70.4 64-160 108.8-262.4 108.8C230.4 851.2 64 672 64 454.4 64 236.8 230.4 64 441.6 64s377.6 172.8 377.6 390.4c0 83.2-25.6 166.4-70.4 230.4l204.8 211.2C966.4 915.2 966.4 934.4 947.2 947.2zM441.6 140.8c-166.4 0-307.2 140.8-307.2 320 0 172.8 134.4 320 307.2 320s307.2-140.8 307.2-320C742.4 281.6 608 140.8 441.6 140.8z" p-id="1916" fill="#ffffff"></path></svg>