<svg xmlns="http://www.w3.org/2000/svg" xmlns:xlink="http://www.w3.org/1999/xlink" width="80" height="88.3" viewBox="0 0 80 88.3"><defs><path id="a" d="M0 0h196.3v88.3H0z"/></defs><clipPath id="b"><use xlink:href="#a" overflow="visible"/></clipPath><path clip-path="url(#b)" fill="#fff" d="M15 76.3h3v-12h-3v12zm3-15h2v-8h-2v8zm7-14h-1v3h1v-3zm-2 29h4v-12h-4v12zm2-15h2v-8h-2v8zm4-11h1v-4h-1v4zm6-3h-1v3h1v-3zm-1 6h-2v8h2v-8zm-2 23h4v-12h-4v12zm9-23h-2v8h2v-8zm0 23h3v-12h-3v12zm-41 12h60V.3H0v88zm52-10H7v-2h3v-12H9v-3h5v-8h-1v-3h5.4c0-5 .6-11.9 6.6-13.9v-4.3c0-3.2 1.2-5.4 3.4-5.9.1-.5.6-1 .6-1.2v-5.7h2V25c0 .2.5.6.6 1.2 2.3.6 3.4 2.7 3.4 5.9v4.3c5 2 7.9 8.9 7.9 13.9H47v3h-2v8h5v3h-1v12h3v2zm26.9-37v12 "/></svg>